<svg xmlns="http://www.w3.org/2000/svg" xmlns:xlink="http://www.w3.org/1999/xlink" width="4477pt" height="622pt" viewBox="0.00 0.00 4477.39 622.40">
<g id="graph0" class="graph" transform="scale(1 1) rotate(0) translate(4 618.4)">
<title>Tree</title>
<polygon fill="white" stroke="none" points="-4,4 -4,-618.4 4473.39,-618.4 4473.39,4 -4,4"/>
<!-- 0 -->
<g id="node1" class="node">
<title>0</title>
<path fill="#f9e4d5" stroke="black" d="M1563.29,-614.4C1563.29,-614.4 1370.07,-614.4 1370.07,-614.4 1364.07,-614.4 1358.07,-608.4 1358.07,-602.4 1358.07,-602.4 1358.07,-551.2 1358.07,-551.2 1358.07,-545.2 1364.07,-539.2 1370.07,-539.2 1370.07,-539.2 1563.29,-539.2 1563.29,-539.2 1569.29,-539.2 1575.29,-545.2 1575.29,-551.2 1575.29,-551.2 1575.29,-602.4 1575.29,-602.4 1575.29,-608.4 1569.29,-614.4 1563.29,-614.4"/>
<text text-anchor="middle" x="1466.68" y="-597.8" font-family="Helvetica,sans-Serif" font-size="14.00">cylinders &lt;= 5.0</text>
<text text-anchor="middle" x="1466.68" y="-581" font-family="Helvetica,sans-Serif" font-size="14.00">squared_error = 356707888.927</text>
<text text-anchor="middle" x="1466.68" y="-564.2" font-family="Helvetica,sans-Serif" font-size="14.00">samples = 881</text>
<text text-anchor="middle" x="1466.68" y="-547.4" font-family="Helvetica,sans-Serif" font-size="14.00">value = 50098.76</text>
</g>
<!-- 1 -->
<g id="node2" class="node">
<title>1</title>
<path fill="#fcf3eb" stroke="black" d="M906.29,-503.2C906.29,-503.2 713.07,-503.2 713.07,-503.2 707.07,-503.2 701.07,-497.2 701.07,-491.2 701.07,-491.2 701.07,-440 701.07,-440 701.07,-434 707.07,-428 713.07,-428 713.07,-428 906.29,-428 906.29,-428 912.29,-428 918.29,-434 918.29,-440 918.29,-440 918.29,-491.2 918.29,-491.2 918.29,-497.2 912.29,-503.2 906.29,-503.2"/>
<text text-anchor="middle" x="809.68" y="-486.6" font-family="Helvetica,sans-Serif" font-size="14.00">doors &lt;= 3.5</text>
<text text-anchor="middle" x="809.68" y="-469.8" font-family="Helvetica,sans-Serif" font-size="14.00">squared_error = 144651535.529</text>
<text text-anchor="middle" x="809.68" y="-453" font-family="Helvetica,sans-Serif" font-size="14.00">samples = 466</text>
<text text-anchor="middle" x="809.68" y="-436.2" font-family="Helvetica,sans-Serif" font-size="14.00">value = 40492.438</text>
</g>
<!-- 0&#45;&gt;1 -->
<g id="edge1" class="edge">
<title>0-&gt;1</title>
<path fill="none" stroke="black" d="M1357.82,-557.71C1239.88,-538.1 1052.24,-506.92 930,-486.6"/>
<polygon fill="black" stroke="black" points="930.68,-483.16 920.24,-484.98 929.53,-490.07 930.68,-483.16"/>
<text text-anchor="middle" x="933.29" y="-500.87" font-family="Helvetica,sans-Serif" font-size="14.00">True</text>
</g>
<!-- 20 -->
<g id="node21" class="node">
<title>20</title>
<path fill="#f6d4bb" stroke="black" d="M2249.29,-503.2C2249.29,-503.2 2056.07,-503.2 2056.07,-503.2 2050.07,-503.2 2044.07,-497.2 2044.07,-491.2 2044.07,-491.2 2044.07,-440 2044.07,-440 2044.07,-434 2050.07,-428 2056.07,-428 2056.07,-428 2249.29,-428 2249.29,-428 2255.29,-428 2261.29,-434 2261.29,-440 2261.29,-440 2261.29,-491.2 2261.29,-491.2 2261.29,-497.2 2255.29,-503.2 2249.29,-503.2"/>
<text text-anchor="middle" x="2152.68" y="-486.6" font-family="Helvetica,sans-Serif" font-size="14.00">year &lt;= 2023.5</text>
<text text-anchor="middle" x="2152.68" y="-469.8" font-family="Helvetica,sans-Serif" font-size="14.00">squared_error = 374845810.766</text>
<text text-anchor="middle" x="2152.68" y="-453" font-family="Helvetica,sans-Serif" font-size="14.00">samples = 415</text>
<text text-anchor="middle" x="2152.68" y="-436.2" font-family="Helvetica,sans-Serif" font-size="14.00">value = 60885.619</text>
</g>
<!-- 0&#45;&gt;20 -->
<g id="edge20" class="edge">
<title>0-&gt;20</title>
<path fill="none" stroke="black" d="M1575.76,-558.44C1700.37,-538.6 1903.67,-506.24 2032.68,-485.7"/>
<polygon fill="black" stroke="black" points="2032.95,-489.2 2042.27,-484.17 2031.84,-482.29 2032.95,-489.2"/>
<text text-anchor="middle" x="2029.09" y="-499.97" font-family="Helvetica,sans-Serif" font-size="14.00">False</text>
</g>
<!-- 2 -->
<g id="node3" class="node">
<title>2</title>
<path fill="#f6d4bc" stroke="black" d="M461.29,-392C461.29,-392 268.07,-392 268.07,-392 262.07,-392 256.07,-386 256.07,-380 256.07,-380 256.07,-328.8 256.07,-328.8 256.07,-322.8 262.07,-316.8 268.07,-316.8 268.07,-316.8 461.29,-316.8 461.29,-316.8 467.29,-316.8 473.29,-322.8 473.29,-328.8 473.29,-328.8 473.29,-380 473.29,-380 473.29,-386 467.29,-392 461.29,-392"/>
<text text-anchor="middle" x="364.68" y="-375.4" font-family="Helvetica,sans-Serif" font-size="14.00">doors &lt;= 2.5</text>
<text text-anchor="middle" x="364.68" y="-358.6" font-family="Helvetica,sans-Serif" font-size="14.00">squared_error = 107201492.472</text>
<text text-anchor="middle" x="364.68" y="-341.8" font-family="Helvetica,sans-Serif" font-size="14.00">samples = 6</text>
<text text-anchor="middle" x="364.68" y="-325" font-family="Helvetica,sans-Serif" font-size="14.00">value = 60443.167</text>
</g>
<!-- 1&#45;&gt;2 -->
<g id="edge2" class="edge">
<title>1-&gt;2</title>
<path fill="none" stroke="black" d="M700.82,-437.89C635.37,-421.83 552,-401.37 484.66,-384.84"/>
<polygon fill="black" stroke="black" points="485.58,-381.47 475.04,-382.48 483.92,-388.26 485.58,-381.47"/>
</g>
<!-- 9 -->
<g id="node10" class="node">
<title>9</title>
<path fill="#fdf3ec" stroke="black" d="M906.29,-392C906.29,-392 713.07,-392 713.07,-392 707.07,-392 701.07,-386 701.07,-380 701.07,-380 701.07,-328.8 701.07,-328.8 701.07,-322.8 707.07,-316.8 713.07,-316.8 713.07,-316.8 906.29,-316.8 906.29,-316.8 912.29,-316.8 918.29,-322.8 918.29,-328.8 918.29,-328.8 918.29,-380 918.29,-380 918.29,-386 912.29,-392 906.29,-392"/>
<text text-anchor="middle" x="809.68" y="-375.4" font-family="Helvetica,sans-Serif" font-size="14.00">cylinders &lt;= 1.5</text>
<text text-anchor="middle" x="809.68" y="-358.6" font-family="Helvetica,sans-Serif" font-size="14.00">squared_error = 139880580.006</text>
<text text-anchor="middle" x="809.68" y="-341.8" font-family="Helvetica,sans-Serif" font-size="14.00">samples = 460</text>
<text text-anchor="middle" x="809.68" y="-325" font-family="Helvetica,sans-Serif" font-size="14.00">value = 40232.211</text>
</g>
<!-- 1&#45;&gt;9 -->
<g id="edge9" class="edge">
<title>1-&gt;9</title>
<path fill="none" stroke="black" d="M809.68,-427.63C809.68,-419.98 809.68,-411.81 809.68,-403.83"/>
<polygon fill="black" stroke="black" points="813.18,-403.85 809.68,-393.85 806.18,-403.85 813.18,-403.85"/>
</g>
<!-- 3 -->
<g id="node4" class="node">
<title>3</title>
<path fill="#fdf6f1" stroke="black" d="M237.35,-272.4C237.35,-272.4 122,-272.4 122,-272.4 116,-272.4 110,-266.4 110,-260.4 110,-260.4 110,-226 110,-226 110,-220 116,-214 122,-214 122,-214 237.35,-214 237.35,-214 243.35,-214 249.35,-220 249.35,-226 249.35,-226 249.35,-260.4 249.35,-260.4 249.35,-266.4 243.35,-272.4 237.35,-272.4"/>
<text text-anchor="middle" x="179.68" y="-255.8" font-family="Helvetica,sans-Serif" font-size="14.00">squared_error = 0.0</text>
<text text-anchor="middle" x="179.68" y="-239" font-family="Helvetica,sans-Serif" font-size="14.00">samples = 1</text>
<text text-anchor="middle" x="179.68" y="-222.2" font-family="Helvetica,sans-Serif" font-size="14.00">value = 38040.0</text>
</g>
<!-- 2&#45;&gt;3 -->
<g id="edge3" class="edge">
<title>2-&gt;3</title>
<path fill="none" stroke="black" d="M302.04,-316.43C281.33,-304.2 258.37,-290.65 237.99,-278.62"/>
<polygon fill="black" stroke="black" points="239.9,-275.68 229.51,-273.62 236.34,-281.71 239.9,-275.68"/>
</g>
<!-- 4 -->
<g id="node5" class="node">
<title>4</title>
<path fill="#f5ceb1" stroke="black" d="M449.61,-280.8C449.61,-280.8 279.75,-280.8 279.75,-280.8 273.75,-280.8 267.75,-274.8 267.75,-268.8 267.75,-268.8 267.75,-217.6 267.75,-217.6 267.75,-211.6 273.75,-205.6 279.75,-205.6 279.75,-205.6 449.61,-205.6 449.61,-205.6 455.61,-205.6 461.61,-211.6 461.61,-217.6 461.61,-217.6 461.61,-268.8 461.61,-268.8 461.61,-274.8 455.61,-280.8 449.61,-280.8"/>
<text text-anchor="middle" x="364.68" y="-264.2" font-family="Helvetica,sans-Serif" font-size="14.00">mileage &lt;= 9.0</text>
<text text-anchor="middle" x="364.68" y="-247.4" font-family="Helvetica,sans-Serif" font-size="14.00">squared_error = 8185340.56</text>
<text text-anchor="middle" x="364.68" y="-230.6" font-family="Helvetica,sans-Serif" font-size="14.00">samples = 5</text>
<text text-anchor="middle" x="364.68" y="-213.8" font-family="Helvetica,sans-Serif" font-size="14.00">value = 64923.8</text>
</g>
<!-- 2&#45;&gt;4 -->
<g id="edge4" class="edge">
<title>2-&gt;4</title>
<path fill="none" stroke="black" d="M364.68,-316.43C364.68,-308.78 364.68,-300.61 364.68,-292.63"/>
<polygon fill="black" stroke="black" points="368.18,-292.65 364.68,-282.65 361.18,-292.65 368.18,-292.65"/>
</g>
<!-- 5 -->
<g id="node6" class="node">
<title>5</title>
<path fill="#f5cfb4" stroke="black" d="M229.71,-169.6C229.71,-169.6 67.64,-169.6 67.64,-169.6 61.64,-169.6 55.64,-163.6 55.64,-157.6 55.64,-157.6 55.64,-106.4 55.64,-106.4 55.64,-100.4 61.64,-94.4 67.64,-94.4 67.64,-94.4 229.71,-94.4 229.71,-94.4 235.71,-94.4 241.71,-100.4 241.71,-106.4 241.71,-106.4 241.71,-157.6 241.71,-157.6 241.71,-163.6 235.71,-169.6 229.71,-169.6"/>
<text text-anchor="middle" x="148.68" y="-153" font-family="Helvetica,sans-Serif" font-size="14.00">mileage &lt;= 4.0</text>
<text text-anchor="middle" x="148.68" y="-136.2" font-family="Helvetica,sans-Serif" font-size="14.00">squared_error = 2007889.0</text>
<text text-anchor="middle" x="148.68" y="-119.4" font-family="Helvetica,sans-Serif" font-size="14.00">samples = 2</text>
<text text-anchor="middle" x="148.68" y="-102.6" font-family="Helvetica,sans-Serif" font-size="14.00">value = 63712.0</text>
</g>
<!-- 4&#45;&gt;5 -->
<g id="edge5" class="edge">
<title>4-&gt;5</title>
<path fill="none" stroke="black" d="M291.55,-205.23C272.37,-195.53 251.55,-185.01 231.89,-175.07"/>
<polygon fill="black" stroke="black" points="233.58,-172 223.08,-170.61 230.43,-178.25 233.58,-172"/>
</g>
<!-- 8 -->
<g id="node9" class="node">
<title>8</title>
<path fill="#f5ccaf" stroke="black" d="M457.39,-161.2C457.39,-161.2 271.96,-161.2 271.96,-161.2 265.96,-161.2 259.96,-155.2 259.96,-149.2 259.96,-149.2 259.96,-114.8 259.96,-114.8 259.96,-108.8 265.96,-102.8 271.96,-102.8 271.96,-102.8 457.39,-102.8 457.39,-102.8 463.39,-102.8 469.39,-108.8 469.39,-114.8 469.39,-114.8 469.39,-149.2 469.39,-149.2 469.39,-155.2 463.39,-161.2 457.39,-161.2"/>
<text text-anchor="middle" x="364.68" y="-144.6" font-family="Helvetica,sans-Serif" font-size="14.00">squared_error = 10672020.222</text>
<text text-anchor="middle" x="364.68" y="-127.8" font-family="Helvetica,sans-Serif" font-size="14.00">samples = 3</text>
<text text-anchor="middle" x="364.68" y="-111" font-family="Helvetica,sans-Serif" font-size="14.00">value = 65731.667</text>
</g>
<!-- 4&#45;&gt;8 -->
<g id="edge8" class="edge">
<title>4-&gt;8</title>
<path fill="none" stroke="black" d="M364.68,-205.23C364.68,-194.89 364.68,-183.61 364.68,-173.09"/>
<polygon fill="black" stroke="black" points="368.18,-173.16 364.68,-163.16 361.18,-173.16 368.18,-173.16"/>
</g>
<!-- 6 -->
<g id="node7" class="node">
<title>6</title>
<path fill="#f5cdb1" stroke="black" d="M127.35,-58.4C127.35,-58.4 12,-58.4 12,-58.4 6,-58.4 0,-52.4 0,-46.4 0,-46.4 0,-12 0,-12 0,-6 6,0 12,0 12,0 127.35,0 127.35,0 133.35,0 139.35,-6 139.35,-12 139.35,-12 139.35,-46.4 139.35,-46.4 139.35,-52.4 133.35,-58.4 127.35,-58.4"/>
<text text-anchor="middle" x="69.68" y="-41.8" font-family="Helvetica,sans-Serif" font-size="14.00">squared_error = 0.0</text>
<text text-anchor="middle" x="69.68" y="-25" font-family="Helvetica,sans-Serif" font-size="14.00">samples = 1</text>
<text text-anchor="middle" x="69.68" y="-8.2" font-family="Helvetica,sans-Serif" font-size="14.00">value = 65129.0</text>
</g>
<!-- 5&#45;&gt;6 -->
<g id="edge6" class="edge">
<title>5-&gt;6</title>
<path fill="none" stroke="black" d="M119.71,-94.04C112.91,-85.36 105.66,-76.12 98.86,-67.43"/>
<polygon fill="black" stroke="black" points="101.82,-65.53 92.89,-59.82 96.31,-69.85 101.82,-65.53"/>
</g>
<!-- 7 -->
<g id="node8" class="node">
<title>7</title>
<path fill="#f6d1b7" stroke="black" d="M284.35,-58.4C284.35,-58.4 169,-58.4 169,-58.4 163,-58.4 157,-52.4 157,-46.4 157,-46.4 157,-12 157,-12 157,-6 163,0 169,0 169,0 284.35,0 284.35,0 290.35,0 296.35,-6 296.35,-12 296.35,-12 296.35,-46.4 296.35,-46.4 296.35,-52.4 290.35,-58.4 284.35,-58.4"/>
<text text-anchor="middle" x="226.68" y="-41.8" font-family="Helvetica,sans-Serif" font-size="14.00">squared_error = 0.0</text>
<text text-anchor="middle" x="226.68" y="-25" font-family="Helvetica,sans-Serif" font-size="14.00">samples = 1</text>
<text text-anchor="middle" x="226.68" y="-8.2" font-family="Helvetica,sans-Serif" font-size="14.00">value = 62295.0</text>
</g>
<!-- 5&#45;&gt;7 -->
<g id="edge7" class="edge">
<title>5-&gt;7</title>
<path fill="none" stroke="black" d="M177.28,-94.04C183.92,-85.46 191,-76.31 197.65,-67.71"/>
<polygon fill="black" stroke="black" points="200.4,-69.88 203.75,-59.83 194.86,-65.59 200.4,-69.88"/>
</g>
<!-- 10 -->
<g id="node11" class="node">
<title>10</title>
<path fill="#f4ccaf" stroke="black" d="M782.61,-280.8C782.61,-280.8 612.75,-280.8 612.75,-280.8 606.75,-280.8 600.75,-274.8 600.75,-268.8 600.75,-268.8 600.75,-217.6 600.75,-217.6 600.75,-211.6 606.75,-205.6 612.75,-205.6 612.75,-205.6 782.61,-205.6 782.61,-205.6 788.61,-205.6 794.61,-211.6 794.61,-217.6 794.61,-217.6 794.61,-268.8 794.61,-268.8 794.61,-274.8 788.61,-280.8 782.61,-280.8"/>
<text text-anchor="middle" x="697.68" y="-264.2" font-family="Helvetica,sans-Serif" font-size="14.00">year &lt;= 2023.5</text>
<text text-anchor="middle" x="697.68" y="-247.4" font-family="Helvetica,sans-Serif" font-size="14.00">squared_error = 14478025.0</text>
<text text-anchor="middle" x="697.68" y="-230.6" font-family="Helvetica,sans-Serif" font-size="14.00">samples = 2</text>
<text text-anchor="middle" x="697.68" y="-213.8" font-family="Helvetica,sans-Serif" font-size="14.00">value = 66045.0</text>
</g>
<!-- 9&#45;&gt;10 -->
<g id="edge10" class="edge">
<title>9-&gt;10</title>
<path fill="none" stroke="black" d="M771.76,-316.43C762.73,-307.62 752.99,-298.13 743.65,-289.02"/>
<polygon fill="black" stroke="black" points="746.24,-286.66 736.64,-282.19 741.36,-291.68 746.24,-286.66"/>
</g>
<!-- 13 -->
<g id="node14" class="node">
<title>13</title>
<path fill="#fdf3ec" stroke="black" d="M1018.29,-280.8C1018.29,-280.8 825.07,-280.8 825.07,-280.8 819.07,-280.8 813.07,-274.8 813.07,-268.8 813.07,-268.8 813.07,-217.6 813.07,-217.6 813.07,-211.6 819.07,-205.6 825.07,-205.6 825.07,-205.6 1018.29,-205.6 1018.29,-205.6 1024.29,-205.6 1030.29,-211.6 1030.29,-217.6 1030.29,-217.6 1030.29,-268.8 1030.29,-268.8 1030.29,-274.8 1024.29,-280.8 1018.29,-280.8"/>
<text text-anchor="middle" x="921.68" y="-264.2" font-family="Helvetica,sans-Serif" font-size="14.00">cylinders &lt;= 3.5</text>
<text text-anchor="middle" x="921.68" y="-247.4" font-family="Helvetica,sans-Serif" font-size="14.00">squared_error = 137505876.359</text>
<text text-anchor="middle" x="921.68" y="-230.6" font-family="Helvetica,sans-Serif" font-size="14.00">samples = 458</text>
<text text-anchor="middle" x="921.68" y="-213.8" font-family="Helvetica,sans-Serif" font-size="14.00">value = 40119.491</text>
</g>
<!-- 9&#45;&gt;13 -->
<g id="edge13" class="edge">
<title>9-&gt;13</title>
<path fill="none" stroke="black" d="M847.6,-316.43C856.63,-307.62 866.36,-298.13 875.71,-289.02"/>
<polygon fill="black" stroke="black" points="878,-291.68 882.71,-282.19 873.11,-286.66 878,-291.68"/>
</g>
<!-- 11 -->
<g id="node12" class="node">
<title>11</title>
<path fill="#f6d2b8" stroke="black" d="M614.35,-161.2C614.35,-161.2 499,-161.2 499,-161.2 493,-161.2 487,-155.2 487,-149.2 487,-149.2 487,-114.8 487,-114.8 487,-108.8 493,-102.8 499,-102.8 499,-102.8 614.35,-102.8 614.35,-102.8 620.35,-102.8 626.35,-108.8 626.35,-114.8 626.35,-114.8 626.35,-149.2 626.35,-149.2 626.35,-155.2 620.35,-161.2 614.35,-161.2"/>
<text text-anchor="middle" x="556.68" y="-144.6" font-family="Helvetica,sans-Serif" font-size="14.00">squared_error = 0.0</text>
<text text-anchor="middle" x="556.68" y="-127.8" font-family="Helvetica,sans-Serif" font-size="14.00">samples = 1</text>
<text text-anchor="middle" x="556.68" y="-111" font-family="Helvetica,sans-Serif" font-size="14.00">value = 62240.0</text>
</g>
<!-- 10&#45;&gt;11 -->
<g id="edge11" class="edge">
<title>10-&gt;11</title>
<path fill="none" stroke="black" d="M649.94,-205.23C634.58,-193.33 617.6,-180.19 602.39,-168.41"/>
<polygon fill="black" stroke="black" points="604.91,-165.93 594.86,-162.57 600.63,-171.46 604.91,-165.93"/>
</g>
<!-- 12 -->
<g id="node13" class="node">
<title>12</title>
<path fill="#f3c6a6" stroke="black" d="M771.35,-161.2C771.35,-161.2 656,-161.2 656,-161.2 650,-161.2 644,-155.2 644,-149.2 644,-149.2 644,-114.8 644,-114.8 644,-108.8 650,-102.8 656,-102.8 656,-102.8 771.35,-102.8 771.35,-102.8 777.35,-102.8 783.35,-108.8 783.35,-114.8 783.35,-114.8 783.35,-149.2 783.35,-149.2 783.35,-155.2 777.35,-161.2 771.35,-161.2"/>
<text text-anchor="middle" x="713.68" y="-144.6" font-family="Helvetica,sans-Serif" font-size="14.00">squared_error = 0.0</text>
<text text-anchor="middle" x="713.68" y="-127.8" font-family="Helvetica,sans-Serif" font-size="14.00">samples = 1</text>
<text text-anchor="middle" x="713.68" y="-111" font-family="Helvetica,sans-Serif" font-size="14.00">value = 69850.0</text>
</g>
<!-- 10&#45;&gt;12 -->
<g id="edge12" class="edge">
<title>10-&gt;12</title>
<path fill="none" stroke="black" d="M703.09,-205.23C704.63,-194.78 706.3,-183.36 707.85,-172.76"/>
<polygon fill="black" stroke="black" points="711.27,-173.55 709.26,-163.14 704.35,-172.53 711.27,-173.55"/>
</g>
<!-- 14 -->
<g id="node15" class="node">
<title>14</title>
<path fill="#fffefd" stroke="black" d="M998.39,-169.6C998.39,-169.6 812.96,-169.6 812.96,-169.6 806.96,-169.6 800.96,-163.6 800.96,-157.6 800.96,-157.6 800.96,-106.4 800.96,-106.4 800.96,-100.4 806.96,-94.4 812.96,-94.4 812.96,-94.4 998.39,-94.4 998.39,-94.4 1004.39,-94.4 1010.39,-100.4 1010.39,-106.4 1010.39,-106.4 1010.39,-157.6 1010.39,-157.6 1010.39,-163.6 1004.39,-169.6 998.39,-169.6"/>
<text text-anchor="middle" x="905.68" y="-153" font-family="Helvetica,sans-Serif" font-size="14.00">mileage &lt;= 4.5</text>
<text text-anchor="middle" x="905.68" y="-136.2" font-family="Helvetica,sans-Serif" font-size="14.00">squared_error = 10719193.806</text>
<text text-anchor="middle" x="905.68" y="-119.4" font-family="Helvetica,sans-Serif" font-size="14.00">samples = 26</text>
<text text-anchor="middle" x="905.68" y="-102.6" font-family="Helvetica,sans-Serif" font-size="14.00">value = 33093.962</text>
</g>
<!-- 13&#45;&gt;14 -->
<g id="edge14" class="edge">
<title>13-&gt;14</title>
<path fill="none" stroke="black" d="M916.26,-205.23C915.13,-197.49 913.92,-189.22 912.73,-181.15"/>
<polygon fill="black" stroke="black" points="916.22,-180.82 911.31,-171.43 909.29,-181.83 916.22,-180.82"/>
</g>
<!-- 17 -->
<g id="node18" class="node">
<title>17</title>
<path fill="#fcf2eb" stroke="black" d="M1233.29,-169.6C1233.29,-169.6 1040.07,-169.6 1040.07,-169.6 1034.07,-169.6 1028.07,-163.6 1028.07,-157.6 1028.07,-157.6 1028.07,-106.4 1028.07,-106.4 1028.07,-100.4 1034.07,-94.4 1040.07,-94.4 1040.07,-94.4 1233.29,-94.4 1233.29,-94.4 1239.29,-94.4 1245.29,-100.4 1245.29,-106.4 1245.29,-106.4 1245.29,-157.6 1245.29,-157.6 1245.29,-163.6 1239.29,-169.6 1233.29,-169.6"/>
<text text-anchor="middle" x="1136.68" y="-153" font-family="Helvetica,sans-Serif" font-size="14.00">mileage &lt;= 5.5</text>
<text text-anchor="middle" x="1136.68" y="-136.2" font-family="Helvetica,sans-Serif" font-size="14.00">squared_error = 141987144.284</text>
<text text-anchor="middle" x="1136.68" y="-119.4" font-family="Helvetica,sans-Serif" font-size="14.00">samples = 432</text>
<text text-anchor="middle" x="1136.68" y="-102.6" font-family="Helvetica,sans-Serif" font-size="14.00">value = 40542.324</text>
</g>
<!-- 13&#45;&gt;17 -->
<g id="edge17" class="edge">
<title>13-&gt;17</title>
<path fill="none" stroke="black" d="M994.47,-205.23C1013.55,-195.53 1034.28,-185.01 1053.85,-175.07"/>
<polygon fill="black" stroke="black" points="1055.28,-178.27 1062.61,-170.62 1052.11,-172.03 1055.28,-178.27"/>
</g>
<!-- 15 -->
<g id="node16" class="node">
<title>15</title>
<path fill="#fefcfb" stroke="black" d="M770.5,-58.4C770.5,-58.4 592.86,-58.4 592.86,-58.4 586.86,-58.4 580.86,-52.4 580.86,-46.4 580.86,-46.4 580.86,-12 580.86,-12 580.86,-6 586.86,0 592.86,0 592.86,0 770.5,0 770.5,0 776.5,0 782.5,-6 782.5,-12 782.5,-12 782.5,-46.4 782.5,-46.4 782.5,-52.4 776.5,-58.4 770.5,-58.4"/>
<text text-anchor="middle" x="681.68" y="-41.8" font-family="Helvetica,sans-Serif" font-size="14.00">squared_error = 8799628.612</text>
<text text-anchor="middle" x="681.68" y="-25" font-family="Helvetica,sans-Serif" font-size="14.00">samples = 11</text>
<text text-anchor="middle" x="681.68" y="-8.2" font-family="Helvetica,sans-Serif" font-size="14.00">value = 34092.545</text>
</g>
<!-- 14&#45;&gt;15 -->
<g id="edge15" class="edge">
<title>14-&gt;15</title>
<path fill="none" stroke="black" d="M823.54,-94.04C801.33,-84.04 777.43,-73.29 755.69,-63.51"/>
<polygon fill="black" stroke="black" points="757.14,-60.32 746.59,-59.41 754.27,-66.71 757.14,-60.32"/>
</g>
<!-- 16 -->
<g id="node17" class="node">
<title>16</title>
<path fill="#ffffff" stroke="black" d="M998.39,-58.4C998.39,-58.4 812.96,-58.4 812.96,-58.4 806.96,-58.4 800.96,-52.4 800.96,-46.4 800.96,-46.4 800.96,-12 800.96,-12 800.96,-6 806.96,0 812.96,0 812.96,0 998.39,0 998.39,0 1004.39,0 1010.39,-6 1010.39,-12 1010.39,-12 1010.39,-46.4 1010.39,-46.4 1010.39,-52.4 1004.39,-58.4 998.39,-58.4"/>
<text text-anchor="middle" x="905.68" y="-41.8" font-family="Helvetica,sans-Serif" font-size="14.00">squared_error = 10859361.289</text>
<text text-anchor="middle" x="905.68" y="-25" font-family="Helvetica,sans-Serif" font-size="14.00">samples = 15</text>
<text text-anchor="middle" x="905.68" y="-8.2" font-family="Helvetica,sans-Serif" font-size="14.00">value = 32361.667</text>
</g>
<!-- 14&#45;&gt;16 -->
<g id="edge16" class="edge">
<title>14-&gt;16</title>
<path fill="none" stroke="black" d="M905.68,-94.04C905.68,-86.19 905.68,-77.86 905.68,-69.91"/>
<polygon fill="black" stroke="black" points="909.18,-70.14 905.68,-60.14 902.18,-70.14 909.18,-70.14"/>
</g>
<!-- 18 -->
<g id="node19" class="node">
<title>18</title>
<path fill="#fcf0e7" stroke="black" d="M1233.29,-58.4C1233.29,-58.4 1040.07,-58.4 1040.07,-58.4 1034.07,-58.4 1028.07,-52.4 1028.07,-46.4 1028.07,-46.4 1028.07,-12 1028.07,-12 1028.07,-6 1034.07,0 1040.07,0 1040.07,0 1233.29,0 1233.29,0 1239.29,0 1245.29,-6 1245.29,-12 1245.29,-12 1245.29,-46.4 1245.29,-46.4 1245.29,-52.4 1239.29,-58.4 1233.29,-58.4"/>
<text text-anchor="middle" x="1136.68" y="-41.8" font-family="Helvetica,sans-Serif" font-size="14.00">squared_error = 127435503.739</text>
<text text-anchor="middle" x="1136.68" y="-25" font-family="Helvetica,sans-Serif" font-size="14.00">samples = 186</text>
<text text-anchor="middle" x="1136.68" y="-8.2" font-family="Helvetica,sans-Serif" font-size="14.00">value = 42423.215</text>
</g>
<!-- 17&#45;&gt;18 -->
<g id="edge18" class="edge">
<title>17-&gt;18</title>
<path fill="none" stroke="black" d="M1136.68,-94.04C1136.68,-86.19 1136.68,-77.86 1136.68,-69.91"/>
<polygon fill="black" stroke="black" points="1140.18,-70.14 1136.68,-60.14 1133.18,-70.14 1140.18,-70.14"/>
</g>
<!-- 19 -->
<g id="node20" class="node">
<title>19</title>
<path fill="#fdf5ef" stroke="black" d="M1468.29,-58.4C1468.29,-58.4 1275.07,-58.4 1275.07,-58.4 1269.07,-58.4 1263.07,-52.4 1263.07,-46.4 1263.07,-46.4 1263.07,-12 1263.07,-12 1263.07,-6 1269.07,0 1275.07,0 1275.07,0 1468.29,0 1468.29,0 1474.29,0 1480.29,-6 1480.29,-12 1480.29,-12 1480.29,-46.4 1480.29,-46.4 1480.29,-52.4 1474.29,-58.4 1468.29,-58.4"/>
<text text-anchor="middle" x="1371.68" y="-41.8" font-family="Helvetica,sans-Serif" font-size="14.00">squared_error = 148292245.518</text>
<text text-anchor="middle" x="1371.68" y="-25" font-family="Helvetica,sans-Serif" font-size="14.00">samples = 246</text>
<text text-anchor="middle" x="1371.68" y="-8.2" font-family="Helvetica,sans-Serif" font-size="14.00">value = 39120.187</text>
</g>
<!-- 17&#45;&gt;19 -->
<g id="edge19" class="edge">
<title>17-&gt;19</title>
<path fill="none" stroke="black" d="M1222.85,-94.04C1246.36,-83.95 1271.68,-73.09 1294.65,-63.24"/>
<polygon fill="black" stroke="black" points="1295.82,-66.54 1303.63,-59.39 1293.06,-60.11 1295.82,-66.54"/>
</g>
<!-- 21 -->
<g id="node22" class="node">
<title>21</title>
<path fill="#f9e4d4" stroke="black" d="M2249.29,-392C2249.29,-392 2056.07,-392 2056.07,-392 2050.07,-392 2044.07,-386 2044.07,-380 2044.07,-380 2044.07,-328.8 2044.07,-328.8 2044.07,-322.8 2050.07,-316.8 2056.07,-316.8 2056.07,-316.8 2249.29,-316.8 2249.29,-316.8 2255.29,-316.8 2261.29,-322.8 2261.29,-328.8 2261.29,-328.8 2261.29,-380 2261.29,-380 2261.29,-386 2255.29,-392 2249.29,-392"/>
<text text-anchor="middle" x="2152.68" y="-375.4" font-family="Helvetica,sans-Serif" font-size="14.00">mileage &lt;= 141.0</text>
<text text-anchor="middle" x="2152.68" y="-358.6" font-family="Helvetica,sans-Serif" font-size="14.00">squared_error = 156850097.264</text>
<text text-anchor="middle" x="2152.68" y="-341.8" font-family="Helvetica,sans-Serif" font-size="14.00">samples = 66</text>
<text text-anchor="middle" x="2152.68" y="-325" font-family="Helvetica,sans-Serif" font-size="14.00">value = 50318.909</text>
</g>
<!-- 20&#45;&gt;21 -->
<g id="edge21" class="edge">
<title>20-&gt;21</title>
<path fill="none" stroke="black" d="M2152.68,-427.63C2152.68,-419.98 2152.68,-411.81 2152.68,-403.83"/>
<polygon fill="black" stroke="black" points="2156.18,-403.85 2152.68,-393.85 2149.18,-403.85 2156.18,-403.85"/>
</g>
<!-- 34 -->
<g id="node35" class="node">
<title>34</title>
<path fill="#f5d1b6" stroke="black" d="M3325.39,-392C3325.39,-392 3139.96,-392 3139.96,-392 3133.96,-392 3127.96,-386 3127.96,-380 3127.96,-380 3127.96,-328.8 3127.96,-328.8 3127.96,-322.8 3133.96,-316.8 3139.96,-316.8 3139.96,-316.8 3325.39,-316.8 3325.39,-316.8 3331.39,-316.8 3337.39,-322.8 3337.39,-328.8 3337.39,-328.8 3337.39,-380 3337.39,-380 3337.39,-386 3331.39,-392 3325.39,-392"/>
<text text-anchor="middle" x="3232.68" y="-375.4" font-family="Helvetica,sans-Serif" font-size="14.00">doors &lt;= 3.5</text>
<text text-anchor="middle" x="3232.68" y="-358.6" font-family="Helvetica,sans-Serif" font-size="14.00">squared_error = 390962861.04</text>
<text text-anchor="middle" x="3232.68" y="-341.8" font-family="Helvetica,sans-Serif" font-size="14.00">samples = 349</text>
<text text-anchor="middle" x="3232.68" y="-325" font-family="Helvetica,sans-Serif" font-size="14.00">value = 62883.908</text>
</g>
<!-- 20&#45;&gt;34 -->
<g id="edge34" class="edge">
<title>20-&gt;34</title>
<path fill="none" stroke="black" d="M2261.68,-453.58C2466.26,-432.89 2906.02,-388.43 3116.19,-367.18"/>
<polygon fill="black" stroke="black" points="3116.45,-370.67 3126.05,-366.18 3115.75,-363.7 3116.45,-370.67"/>
</g>
<!-- 22 -->
<g id="node23" class="node">
<title>22</title>
<path fill="#fae7da" stroke="black" d="M2126.39,-280.8C2126.39,-280.8 1940.96,-280.8 1940.96,-280.8 1934.96,-280.8 1928.96,-274.8 1928.96,-268.8 1928.96,-268.8 1928.96,-217.6 1928.96,-217.6 1928.96,-211.6 1934.96,-205.6 1940.96,-205.6 1940.96,-205.6 2126.39,-205.6 2126.39,-205.6 2132.39,-205.6 2138.39,-211.6 2138.39,-217.6 2138.39,-217.6 2138.39,-268.8 2138.39,-268.8 2138.39,-274.8 2132.39,-280.8 2126.39,-280.8"/>
<text text-anchor="middle" x="2033.68" y="-264.2" font-family="Helvetica,sans-Serif" font-size="14.00">doors &lt;= 3.5</text>
<text text-anchor="middle" x="2033.68" y="-247.4" font-family="Helvetica,sans-Serif" font-size="14.00">squared_error = 59164623.901</text>
<text text-anchor="middle" x="2033.68" y="-230.6" font-family="Helvetica,sans-Serif" font-size="14.00">samples = 61</text>
<text text-anchor="middle" x="2033.68" y="-213.8" font-family="Helvetica,sans-Serif" font-size="14.00">value = 47775.033</text>
</g>
<!-- 21&#45;&gt;22 -->
<g id="edge22" class="edge">
<title>21-&gt;22</title>
<path fill="none" stroke="black" d="M2112.39,-316.43C2102.7,-307.54 2092.24,-297.94 2082.22,-288.74"/>
<polygon fill="black" stroke="black" points="2084.77,-286.34 2075.04,-282.16 2080.04,-291.5 2084.77,-286.34"/>
</g>
<!-- 29 -->
<g id="node30" class="node">
<title>29</title>
<path fill="#f0b58a" stroke="black" d="M2359.39,-280.8C2359.39,-280.8 2173.96,-280.8 2173.96,-280.8 2167.96,-280.8 2161.96,-274.8 2161.96,-268.8 2161.96,-268.8 2161.96,-217.6 2161.96,-217.6 2161.96,-211.6 2167.96,-205.6 2173.96,-205.6 2173.96,-205.6 2359.39,-205.6 2359.39,-205.6 2365.39,-205.6 2371.39,-211.6 2371.39,-217.6 2371.39,-217.6 2371.39,-268.8 2371.39,-268.8 2371.39,-274.8 2365.39,-280.8 2359.39,-280.8"/>
<text text-anchor="middle" x="2266.68" y="-264.2" font-family="Helvetica,sans-Serif" font-size="14.00">doors &lt;= 3.5</text>
<text text-anchor="middle" x="2266.68" y="-247.4" font-family="Helvetica,sans-Serif" font-size="14.00">squared_error = 306473649.36</text>
<text text-anchor="middle" x="2266.68" y="-230.6" font-family="Helvetica,sans-Serif" font-size="14.00">samples = 5</text>
<text text-anchor="middle" x="2266.68" y="-213.8" font-family="Helvetica,sans-Serif" font-size="14.00">value = 81354.2</text>
</g>
<!-- 21&#45;&gt;29 -->
<g id="edge29" class="edge">
<title>21-&gt;29</title>
<path fill="none" stroke="black" d="M2191.27,-316.43C2200.47,-307.62 2210.37,-298.13 2219.89,-289.02"/>
<polygon fill="black" stroke="black" points="2222.23,-291.62 2227.03,-282.18 2217.39,-286.57 2222.23,-291.62"/>
</g>
<!-- 23 -->
<g id="node24" class="node">
<title>23</title>
<path fill="#f7d6bf" stroke="black" d="M1892.5,-169.6C1892.5,-169.6 1714.86,-169.6 1714.86,-169.6 1708.86,-169.6 1702.86,-163.6 1702.86,-157.6 1702.86,-157.6 1702.86,-106.4 1702.86,-106.4 1702.86,-100.4 1708.86,-94.4 1714.86,-94.4 1714.86,-94.4 1892.5,-94.4 1892.5,-94.4 1898.5,-94.4 1904.5,-100.4 1904.5,-106.4 1904.5,-106.4 1904.5,-157.6 1904.5,-157.6 1904.5,-163.6 1898.5,-169.6 1892.5,-169.6"/>
<text text-anchor="middle" x="1803.68" y="-153" font-family="Helvetica,sans-Serif" font-size="14.00">mileage &lt;= 2.5</text>
<text text-anchor="middle" x="1803.68" y="-136.2" font-family="Helvetica,sans-Serif" font-size="14.00">squared_error = 34233045.36</text>
<text text-anchor="middle" x="1803.68" y="-119.4" font-family="Helvetica,sans-Serif" font-size="14.00">samples = 5</text>
<text text-anchor="middle" x="1803.68" y="-102.6" font-family="Helvetica,sans-Serif" font-size="14.00">value = 59032.2</text>
</g>
<!-- 22&#45;&gt;23 -->
<g id="edge23" class="edge">
<title>22-&gt;23</title>
<path fill="none" stroke="black" d="M1955.81,-205.23C1935.2,-195.45 1912.81,-184.82 1891.71,-174.8"/>
<polygon fill="black" stroke="black" points="1893.37,-171.71 1882.83,-170.58 1890.36,-178.03 1893.37,-171.71"/>
</g>
<!-- 26 -->
<g id="node27" class="node">
<title>26</title>
<path fill="#fae9dc" stroke="black" d="M2126.39,-169.6C2126.39,-169.6 1940.96,-169.6 1940.96,-169.6 1934.96,-169.6 1928.96,-163.6 1928.96,-157.6 1928.96,-157.6 1928.96,-106.4 1928.96,-106.4 1928.96,-100.4 1934.96,-94.4 1940.96,-94.4 1940.96,-94.4 2126.39,-94.4 2126.39,-94.4 2132.39,-94.4 2138.39,-100.4 2138.39,-106.4 2138.39,-106.4 2138.39,-157.6 2138.39,-157.6 2138.39,-163.6 2132.39,-169.6 2126.39,-169.6"/>
<text text-anchor="middle" x="2033.68" y="-153" font-family="Helvetica,sans-Serif" font-size="14.00">cylinders &lt;= 7.0</text>
<text text-anchor="middle" x="2033.68" y="-136.2" font-family="Helvetica,sans-Serif" font-size="14.00">squared_error = 49065796.995</text>
<text text-anchor="middle" x="2033.68" y="-119.4" font-family="Helvetica,sans-Serif" font-size="14.00">samples = 56</text>
<text text-anchor="middle" x="2033.68" y="-102.6" font-family="Helvetica,sans-Serif" font-size="14.00">value = 46769.929</text>
</g>
<!-- 22&#45;&gt;26 -->
<g id="edge26" class="edge">
<title>22-&gt;26</title>
<path fill="none" stroke="black" d="M2033.68,-205.23C2033.68,-197.58 2033.68,-189.41 2033.68,-181.43"/>
<polygon fill="black" stroke="black" points="2037.18,-181.45 2033.68,-171.45 2030.18,-181.45 2037.18,-181.45"/>
</g>
<!-- 24 -->
<g id="node25" class="node">
<title>24</title>
<path fill="#f9e1cf" stroke="black" d="M1672.71,-58.4C1672.71,-58.4 1510.64,-58.4 1510.64,-58.4 1504.64,-58.4 1498.64,-52.4 1498.64,-46.4 1498.64,-46.4 1498.64,-12 1498.64,-12 1498.64,-6 1504.64,0 1510.64,0 1510.64,0 1672.71,0 1672.71,0 1678.71,0 1684.71,-6 1684.71,-12 1684.71,-12 1684.71,-46.4 1684.71,-46.4 1684.71,-52.4 1678.71,-58.4 1672.71,-58.4"/>
<text text-anchor="middle" x="1591.68" y="-41.8" font-family="Helvetica,sans-Serif" font-size="14.00">squared_error = 4579600.0</text>
<text text-anchor="middle" x="1591.68" y="-25" font-family="Helvetica,sans-Serif" font-size="14.00">samples = 2</text>
<text text-anchor="middle" x="1591.68" y="-8.2" font-family="Helvetica,sans-Serif" font-size="14.00">value = 52385.0</text>
</g>
<!-- 23&#45;&gt;24 -->
<g id="edge24" class="edge">
<title>23-&gt;24</title>
<path fill="none" stroke="black" d="M1725.94,-94.04C1705.01,-84.09 1682.5,-73.38 1662,-63.64"/>
<polygon fill="black" stroke="black" points="1663.71,-60.57 1653.17,-59.44 1660.7,-66.89 1663.71,-60.57"/>
</g>
<!-- 25 -->
<g id="node26" class="node">
<title>25</title>
<path fill="#f5d0b5" stroke="black" d="M1892.5,-58.4C1892.5,-58.4 1714.86,-58.4 1714.86,-58.4 1708.86,-58.4 1702.86,-52.4 1702.86,-46.4 1702.86,-46.4 1702.86,-12 1702.86,-12 1702.86,-6 1708.86,0 1714.86,0 1714.86,0 1892.5,0 1892.5,0 1898.5,0 1904.5,-6 1904.5,-12 1904.5,-12 1904.5,-46.4 1904.5,-46.4 1904.5,-52.4 1898.5,-58.4 1892.5,-58.4"/>
<text text-anchor="middle" x="1803.68" y="-41.8" font-family="Helvetica,sans-Serif" font-size="14.00">squared_error = 4907266.889</text>
<text text-anchor="middle" x="1803.68" y="-25" font-family="Helvetica,sans-Serif" font-size="14.00">samples = 3</text>
<text text-anchor="middle" x="1803.68" y="-8.2" font-family="Helvetica,sans-Serif" font-size="14.00">value = 63463.667</text>
</g>
<!-- 23&#45;&gt;25 -->
<g id="edge25" class="edge">
<title>23-&gt;25</title>
<path fill="none" stroke="black" d="M1803.68,-94.04C1803.68,-86.19 1803.68,-77.86 1803.68,-69.91"/>
<polygon fill="black" stroke="black" points="1807.18,-70.14 1803.68,-60.14 1800.18,-70.14 1807.18,-70.14"/>
</g>
<!-- 27 -->
<g id="node28" class="node">
<title>27</title>
<path fill="#fceee5" stroke="black" d="M2120.39,-58.4C2120.39,-58.4 1934.96,-58.4 1934.96,-58.4 1928.96,-58.4 1922.96,-52.4 1922.96,-46.4 1922.96,-46.4 1922.96,-12 1922.96,-12 1922.96,-6 1928.96,0 1934.96,0 1934.96,0 2120.39,0 2120.39,0 2126.39,0 2132.39,-6 2132.39,-12 2132.39,-12 2132.39,-46.4 2132.39,-46.4 2132.39,-52.4 2126.39,-58.4 2120.39,-58.4"/>
<text text-anchor="middle" x="2027.68" y="-41.8" font-family="Helvetica,sans-Serif" font-size="14.00">squared_error = 93086093.423</text>
<text text-anchor="middle" x="2027.68" y="-25" font-family="Helvetica,sans-Serif" font-size="14.00">samples = 18</text>
<text text-anchor="middle" x="2027.68" y="-8.2" font-family="Helvetica,sans-Serif" font-size="14.00">value = 43378.278</text>
</g>
<!-- 26&#45;&gt;27 -->
<g id="edge27" class="edge">
<title>26-&gt;27</title>
<path fill="none" stroke="black" d="M2031.48,-94.04C2031.01,-86.19 2030.51,-77.86 2030.04,-69.91"/>
<polygon fill="black" stroke="black" points="2033.55,-69.92 2029.46,-60.14 2026.56,-70.33 2033.55,-69.92"/>
</g>
<!-- 28 -->
<g id="node29" class="node">
<title>28</title>
<path fill="#fae7d9" stroke="black" d="M2347.39,-58.4C2347.39,-58.4 2161.96,-58.4 2161.96,-58.4 2155.96,-58.4 2149.96,-52.4 2149.96,-46.4 2149.96,-46.4 2149.96,-12 2149.96,-12 2149.96,-6 2155.96,0 2161.96,0 2161.96,0 2347.39,0 2347.39,0 2353.39,0 2359.39,-6 2359.39,-12 2359.39,-12 2359.39,-46.4 2359.39,-46.4 2359.39,-52.4 2353.39,-58.4 2347.39,-58.4"/>
<text text-anchor="middle" x="2254.68" y="-41.8" font-family="Helvetica,sans-Serif" font-size="14.00">squared_error = 20184076.618</text>
<text text-anchor="middle" x="2254.68" y="-25" font-family="Helvetica,sans-Serif" font-size="14.00">samples = 38</text>
<text text-anchor="middle" x="2254.68" y="-8.2" font-family="Helvetica,sans-Serif" font-size="14.00">value = 48376.5</text>
</g>
<!-- 26&#45;&gt;28 -->
<g id="edge28" class="edge">
<title>26-&gt;28</title>
<path fill="none" stroke="black" d="M2114.71,-94.04C2136.63,-84.04 2160.21,-73.29 2181.66,-63.51"/>
<polygon fill="black" stroke="black" points="2182.97,-66.75 2190.62,-59.42 2180.07,-60.38 2182.97,-66.75"/>
</g>
<!-- 30 -->
<g id="node31" class="node">
<title>30</title>
<path fill="#f7dac4" stroke="black" d="M2324.35,-161.2C2324.35,-161.2 2209,-161.2 2209,-161.2 2203,-161.2 2197,-155.2 2197,-149.2 2197,-149.2 2197,-114.8 2197,-114.8 2197,-108.8 2203,-102.8 2209,-102.8 2209,-102.8 2324.35,-102.8 2324.35,-102.8 2330.35,-102.8 2336.35,-108.8 2336.35,-114.8 2336.35,-114.8 2336.35,-149.2 2336.35,-149.2 2336.35,-155.2 2330.35,-161.2 2324.35,-161.2"/>
<text text-anchor="middle" x="2266.68" y="-144.6" font-family="Helvetica,sans-Serif" font-size="14.00">squared_error = 0.0</text>
<text text-anchor="middle" x="2266.68" y="-127.8" font-family="Helvetica,sans-Serif" font-size="14.00">samples = 1</text>
<text text-anchor="middle" x="2266.68" y="-111" font-family="Helvetica,sans-Serif" font-size="14.00">value = 57000.0</text>
</g>
<!-- 29&#45;&gt;30 -->
<g id="edge30" class="edge">
<title>29-&gt;30</title>
<path fill="none" stroke="black" d="M2266.68,-205.23C2266.68,-194.89 2266.68,-183.61 2266.68,-173.09"/>
<polygon fill="black" stroke="black" points="2270.18,-173.16 2266.68,-163.16 2263.18,-173.16 2270.18,-173.16"/>
</g>
<!-- 31 -->
<g id="node32" class="node">
<title>31</title>
<path fill="#eeab7c" stroke="black" d="M2571.29,-169.6C2571.29,-169.6 2378.07,-169.6 2378.07,-169.6 2372.07,-169.6 2366.07,-163.6 2366.07,-157.6 2366.07,-157.6 2366.07,-106.4 2366.07,-106.4 2366.07,-100.4 2372.07,-94.4 2378.07,-94.4 2378.07,-94.4 2571.29,-94.4 2571.29,-94.4 2577.29,-94.4 2583.29,-100.4 2583.29,-106.4 2583.29,-106.4 2583.29,-157.6 2583.29,-157.6 2583.29,-163.6 2577.29,-169.6 2571.29,-169.6"/>
<text text-anchor="middle" x="2474.68" y="-153" font-family="Helvetica,sans-Serif" font-size="14.00">mileage &lt;= 451.0</text>
<text text-anchor="middle" x="2474.68" y="-136.2" font-family="Helvetica,sans-Serif" font-size="14.00">squared_error = 197739856.188</text>
<text text-anchor="middle" x="2474.68" y="-119.4" font-family="Helvetica,sans-Serif" font-size="14.00">samples = 4</text>
<text text-anchor="middle" x="2474.68" y="-102.6" font-family="Helvetica,sans-Serif" font-size="14.00">value = 87442.75</text>
</g>
<!-- 29&#45;&gt;31 -->
<g id="edge31" class="edge">
<title>29-&gt;31</title>
<path fill="none" stroke="black" d="M2337.1,-205.23C2355.48,-195.58 2375.43,-185.11 2394.28,-175.21"/>
<polygon fill="black" stroke="black" points="2395.76,-178.38 2402.99,-170.64 2392.51,-172.19 2395.76,-178.38"/>
</g>
<!-- 32 -->
<g id="node33" class="node">
<title>32</title>
<path fill="#f1bc95" stroke="black" d="M2559.61,-58.4C2559.61,-58.4 2389.75,-58.4 2389.75,-58.4 2383.75,-58.4 2377.75,-52.4 2377.75,-46.4 2377.75,-46.4 2377.75,-12 2377.75,-12 2377.75,-6 2383.75,0 2389.75,0 2389.75,0 2559.61,0 2559.61,0 2565.61,0 2571.61,-6 2571.61,-12 2571.61,-12 2571.61,-46.4 2571.61,-46.4 2571.61,-52.4 2565.61,-58.4 2559.61,-58.4"/>
<text text-anchor="middle" x="2474.68" y="-41.8" font-family="Helvetica,sans-Serif" font-size="14.00">squared_error = 22686169.0</text>
<text text-anchor="middle" x="2474.68" y="-25" font-family="Helvetica,sans-Serif" font-size="14.00">samples = 2</text>
<text text-anchor="middle" x="2474.68" y="-8.2" font-family="Helvetica,sans-Serif" font-size="14.00">value = 76762.0</text>
</g>
<!-- 31&#45;&gt;32 -->
<g id="edge32" class="edge">
<title>31-&gt;32</title>
<path fill="none" stroke="black" d="M2474.68,-94.04C2474.68,-86.19 2474.68,-77.86 2474.68,-69.91"/>
<polygon fill="black" stroke="black" points="2478.18,-70.14 2474.68,-60.14 2471.18,-70.14 2478.18,-70.14"/>
</g>
<!-- 33 -->
<g id="node34" class="node">
<title>33</title>
<path fill="#ea9b62" stroke="black" d="M2787.39,-58.4C2787.39,-58.4 2601.96,-58.4 2601.96,-58.4 2595.96,-58.4 2589.96,-52.4 2589.96,-46.4 2589.96,-46.4 2589.96,-12 2589.96,-12 2589.96,-6 2595.96,0 2601.96,0 2601.96,0 2787.39,0 2787.39,0 2793.39,0 2799.39,-6 2799.39,-12 2799.39,-12 2799.39,-46.4 2799.39,-46.4 2799.39,-52.4 2793.39,-58.4 2787.39,-58.4"/>
<text text-anchor="middle" x="2694.68" y="-41.8" font-family="Helvetica,sans-Serif" font-size="14.00">squared_error = 144636702.25</text>
<text text-anchor="middle" x="2694.68" y="-25" font-family="Helvetica,sans-Serif" font-size="14.00">samples = 2</text>
<text text-anchor="middle" x="2694.68" y="-8.2" font-family="Helvetica,sans-Serif" font-size="14.00">value = 98123.5</text>
</g>
<!-- 31&#45;&gt;33 -->
<g id="edge33" class="edge">
<title>31-&gt;33</title>
<path fill="none" stroke="black" d="M2555.35,-94.04C2577.16,-84.04 2600.64,-73.29 2621.99,-63.51"/>
<polygon fill="black" stroke="black" points="2623.27,-66.77 2630.9,-59.42 2620.35,-60.4 2623.27,-66.77"/>
</g>
<!-- 35 -->
<g id="node36" class="node">
<title>35</title>
<path fill="#f8dfcc" stroke="black" d="M3325.39,-280.8C3325.39,-280.8 3139.96,-280.8 3139.96,-280.8 3133.96,-280.8 3127.96,-274.8 3127.96,-268.8 3127.96,-268.8 3127.96,-217.6 3127.96,-217.6 3127.96,-211.6 3133.96,-205.6 3139.96,-205.6 3139.96,-205.6 3325.39,-205.6 3325.39,-205.6 3331.39,-205.6 3337.39,-211.6 3337.39,-217.6 3337.39,-217.6 3337.39,-268.8 3337.39,-268.8 3337.39,-274.8 3331.39,-280.8 3325.39,-280.8"/>
<text text-anchor="middle" x="3232.68" y="-264.2" font-family="Helvetica,sans-Serif" font-size="14.00">mileage &lt;= 72.0</text>
<text text-anchor="middle" x="3232.68" y="-247.4" font-family="Helvetica,sans-Serif" font-size="14.00">squared_error = 88870667.769</text>
<text text-anchor="middle" x="3232.68" y="-230.6" font-family="Helvetica,sans-Serif" font-size="14.00">samples = 31</text>
<text text-anchor="middle" x="3232.68" y="-213.8" font-family="Helvetica,sans-Serif" font-size="14.00">value = 53487.194</text>
</g>
<!-- 34&#45;&gt;35 -->
<g id="edge35" class="edge">
<title>34-&gt;35</title>
<path fill="none" stroke="black" d="M3232.68,-316.43C3232.68,-308.78 3232.68,-300.61 3232.68,-292.63"/>
<polygon fill="black" stroke="black" points="3236.18,-292.65 3232.68,-282.65 3229.18,-292.65 3236.18,-292.65"/>
</g>
<!-- 42 -->
<g id="node43" class="node">
<title>42</title>
<path fill="#f5cfb4" stroke="black" d="M3936.29,-280.8C3936.29,-280.8 3743.07,-280.8 3743.07,-280.8 3737.07,-280.8 3731.07,-274.8 3731.07,-268.8 3731.07,-268.8 3731.07,-217.6 3731.07,-217.6 3731.07,-211.6 3737.07,-205.6 3743.07,-205.6 3743.07,-205.6 3936.29,-205.6 3936.29,-205.6 3942.29,-205.6 3948.29,-211.6 3948.29,-217.6 3948.29,-217.6 3948.29,-268.8 3948.29,-268.8 3948.29,-274.8 3942.29,-280.8 3936.29,-280.8"/>
<text text-anchor="middle" x="3839.68" y="-264.2" font-family="Helvetica,sans-Serif" font-size="14.00">mileage &lt;= 395.5</text>
<text text-anchor="middle" x="3839.68" y="-247.4" font-family="Helvetica,sans-Serif" font-size="14.00">squared_error = 410965294.616</text>
<text text-anchor="middle" x="3839.68" y="-230.6" font-family="Helvetica,sans-Serif" font-size="14.00">samples = 318</text>
<text text-anchor="middle" x="3839.68" y="-213.8" font-family="Helvetica,sans-Serif" font-size="14.00">value = 63799.94</text>
</g>
<!-- 34&#45;&gt;42 -->
<g id="edge42" class="edge">
<title>34-&gt;42</title>
<path fill="none" stroke="black" d="M3337.72,-334.5C3444,-315.38 3608.12,-285.86 3719.53,-265.82"/>
<polygon fill="black" stroke="black" points="3720.1,-269.27 3729.32,-264.05 3718.86,-262.38 3720.1,-269.27"/>
</g>
<!-- 36 -->
<g id="node37" class="node">
<title>36</title>
<path fill="#f9e3d3" stroke="black" d="M3213.39,-169.6C3213.39,-169.6 3027.96,-169.6 3027.96,-169.6 3021.96,-169.6 3015.96,-163.6 3015.96,-157.6 3015.96,-157.6 3015.96,-106.4 3015.96,-106.4 3015.96,-100.4 3021.96,-94.4 3027.96,-94.4 3027.96,-94.4 3213.39,-94.4 3213.39,-94.4 3219.39,-94.4 3225.39,-100.4 3225.39,-106.4 3225.39,-106.4 3225.39,-157.6 3225.39,-157.6 3225.39,-163.6 3219.39,-169.6 3213.39,-169.6"/>
<text text-anchor="middle" x="3120.68" y="-153" font-family="Helvetica,sans-Serif" font-size="14.00">year &lt;= 2024.5</text>
<text text-anchor="middle" x="3120.68" y="-136.2" font-family="Helvetica,sans-Serif" font-size="14.00">squared_error = 54134675.149</text>
<text text-anchor="middle" x="3120.68" y="-119.4" font-family="Helvetica,sans-Serif" font-size="14.00">samples = 26</text>
<text text-anchor="middle" x="3120.68" y="-102.6" font-family="Helvetica,sans-Serif" font-size="14.00">value = 50677.654</text>
</g>
<!-- 35&#45;&gt;36 -->
<g id="edge36" class="edge">
<title>35-&gt;36</title>
<path fill="none" stroke="black" d="M3194.76,-205.23C3185.73,-196.42 3175.99,-186.93 3166.65,-177.82"/>
<polygon fill="black" stroke="black" points="3169.24,-175.46 3159.64,-170.99 3164.36,-180.48 3169.24,-175.46"/>
</g>
<!-- 39 -->
<g id="node40" class="node">
<title>39</title>
<path fill="#f4c9aa" stroke="black" d="M3433.5,-169.6C3433.5,-169.6 3255.86,-169.6 3255.86,-169.6 3249.86,-169.6 3243.86,-163.6 3243.86,-157.6 3243.86,-157.6 3243.86,-106.4 3243.86,-106.4 3243.86,-100.4 3249.86,-94.4 3255.86,-94.4 3255.86,-94.4 3433.5,-94.4 3433.5,-94.4 3439.5,-94.4 3445.5,-100.4 3445.5,-106.4 3445.5,-106.4 3445.5,-157.6 3445.5,-157.6 3445.5,-163.6 3439.5,-169.6 3433.5,-169.6"/>
<text text-anchor="middle" x="3344.68" y="-153" font-family="Helvetica,sans-Serif" font-size="14.00">mileage &lt;= 133.0</text>
<text text-anchor="middle" x="3344.68" y="-136.2" font-family="Helvetica,sans-Serif" font-size="14.00">squared_error = 15010959.36</text>
<text text-anchor="middle" x="3344.68" y="-119.4" font-family="Helvetica,sans-Serif" font-size="14.00">samples = 5</text>
<text text-anchor="middle" x="3344.68" y="-102.6" font-family="Helvetica,sans-Serif" font-size="14.00">value = 68096.8</text>
</g>
<!-- 35&#45;&gt;39 -->
<g id="edge39" class="edge">
<title>35-&gt;39</title>
<path fill="none" stroke="black" d="M3270.6,-205.23C3279.63,-196.42 3289.36,-186.93 3298.71,-177.82"/>
<polygon fill="black" stroke="black" points="3301,-180.48 3305.71,-170.99 3296.11,-175.46 3301,-180.48"/>
</g>
<!-- 37 -->
<g id="node38" class="node">
<title>37</title>
<path fill="#f9e1cf" stroke="black" d="M3007.5,-58.4C3007.5,-58.4 2829.86,-58.4 2829.86,-58.4 2823.86,-58.4 2817.86,-52.4 2817.86,-46.4 2817.86,-46.4 2817.86,-12 2817.86,-12 2817.86,-6 2823.86,0 2829.86,0 2829.86,0 3007.5,0 3007.5,0 3013.5,0 3019.5,-6 3019.5,-12 3019.5,-12 3019.5,-46.4 3019.5,-46.4 3019.5,-52.4 3013.5,-58.4 3007.5,-58.4"/>
<text text-anchor="middle" x="2918.68" y="-41.8" font-family="Helvetica,sans-Serif" font-size="14.00">squared_error = 24923418.25</text>
<text text-anchor="middle" x="2918.68" y="-25" font-family="Helvetica,sans-Serif" font-size="14.00">samples = 24</text>
<text text-anchor="middle" x="2918.68" y="-8.2" font-family="Helvetica,sans-Serif" font-size="14.00">value = 52213.5</text>
</g>
<!-- 36&#45;&gt;37 -->
<g id="edge37" class="edge">
<title>36-&gt;37</title>
<path fill="none" stroke="black" d="M3046.61,-94.04C3026.85,-84.18 3005.61,-73.58 2986.22,-63.91"/>
<polygon fill="black" stroke="black" points="2987.83,-60.8 2977.32,-59.47 2984.71,-67.06 2987.83,-60.8"/>
</g>
<!-- 38 -->
<g id="node39" class="node">
<title>38</title>
<path fill="#ffffff" stroke="black" d="M3227.5,-58.4C3227.5,-58.4 3049.86,-58.4 3049.86,-58.4 3043.86,-58.4 3037.86,-52.4 3037.86,-46.4 3037.86,-46.4 3037.86,-12 3037.86,-12 3037.86,-6 3043.86,0 3049.86,0 3049.86,0 3227.5,0 3227.5,0 3233.5,0 3239.5,-6 3239.5,-12 3239.5,-12 3239.5,-46.4 3239.5,-46.4 3239.5,-52.4 3233.5,-58.4 3227.5,-58.4"/>
<text text-anchor="middle" x="3138.68" y="-41.8" font-family="Helvetica,sans-Serif" font-size="14.00">squared_error = 36693306.25</text>
<text text-anchor="middle" x="3138.68" y="-25" font-family="Helvetica,sans-Serif" font-size="14.00">samples = 2</text>
<text text-anchor="middle" x="3138.68" y="-8.2" font-family="Helvetica,sans-Serif" font-size="14.00">value = 32247.5</text>
</g>
<!-- 36&#45;&gt;38 -->
<g id="edge38" class="edge">
<title>36-&gt;38</title>
<path fill="none" stroke="black" d="M3127.28,-94.04C3128.68,-86.19 3130.17,-77.86 3131.59,-69.91"/>
<polygon fill="black" stroke="black" points="3135.02,-70.58 3133.33,-60.12 3128.13,-69.35 3135.02,-70.58"/>
</g>
<!-- 40 -->
<g id="node41" class="node">
<title>40</title>
<path fill="#f2bf9b" stroke="black" d="M3384.35,-58.4C3384.35,-58.4 3269,-58.4 3269,-58.4 3263,-58.4 3257,-52.4 3257,-46.4 3257,-46.4 3257,-12 3257,-12 3257,-6 3263,0 3269,0 3269,0 3384.35,0 3384.35,0 3390.35,0 3396.35,-6 3396.35,-12 3396.35,-12 3396.35,-46.4 3396.35,-46.4 3396.35,-52.4 3390.35,-58.4 3384.35,-58.4"/>
<text text-anchor="middle" x="3326.68" y="-41.8" font-family="Helvetica,sans-Serif" font-size="14.00">squared_error = 0.0</text>
<text text-anchor="middle" x="3326.68" y="-25" font-family="Helvetica,sans-Serif" font-size="14.00">samples = 1</text>
<text text-anchor="middle" x="3326.68" y="-8.2" font-family="Helvetica,sans-Serif" font-size="14.00">value = 74391.0</text>
</g>
<!-- 39&#45;&gt;40 -->
<g id="edge40" class="edge">
<title>39-&gt;40</title>
<path fill="none" stroke="black" d="M3338.08,-94.04C3336.67,-86.19 3335.19,-77.86 3333.77,-69.91"/>
<polygon fill="black" stroke="black" points="3337.22,-69.35 3332.02,-60.12 3330.33,-70.58 3337.22,-69.35"/>
</g>
<!-- 41 -->
<g id="node42" class="node">
<title>41</title>
<path fill="#f4cbad" stroke="black" d="M3603.5,-58.4C3603.5,-58.4 3425.86,-58.4 3425.86,-58.4 3419.86,-58.4 3413.86,-52.4 3413.86,-46.4 3413.86,-46.4 3413.86,-12 3413.86,-12 3413.86,-6 3419.86,0 3425.86,0 3425.86,0 3603.5,0 3603.5,0 3609.5,0 3615.5,-6 3615.5,-12 3615.5,-12 3615.5,-46.4 3615.5,-46.4 3615.5,-52.4 3609.5,-58.4 3603.5,-58.4"/>
<text text-anchor="middle" x="3514.68" y="-41.8" font-family="Helvetica,sans-Serif" font-size="14.00">squared_error = 6383401.188</text>
<text text-anchor="middle" x="3514.68" y="-25" font-family="Helvetica,sans-Serif" font-size="14.00">samples = 4</text>
<text text-anchor="middle" x="3514.68" y="-8.2" font-family="Helvetica,sans-Serif" font-size="14.00">value = 66523.25</text>
</g>
<!-- 39&#45;&gt;41 -->
<g id="edge41" class="edge">
<title>39-&gt;41</title>
<path fill="none" stroke="black" d="M3407.01,-94.04C3423.26,-84.41 3440.69,-74.07 3456.7,-64.58"/>
<polygon fill="black" stroke="black" points="3458.34,-67.67 3465.16,-59.56 3454.77,-61.65 3458.34,-67.67"/>
</g>
<!-- 43 -->
<g id="node44" class="node">
<title>43</title>
<path fill="#f5d0b5" stroke="black" d="M3936.29,-169.6C3936.29,-169.6 3743.07,-169.6 3743.07,-169.6 3737.07,-169.6 3731.07,-163.6 3731.07,-157.6 3731.07,-157.6 3731.07,-106.4 3731.07,-106.4 3731.07,-100.4 3737.07,-94.4 3743.07,-94.4 3743.07,-94.4 3936.29,-94.4 3936.29,-94.4 3942.29,-94.4 3948.29,-100.4 3948.29,-106.4 3948.29,-106.4 3948.29,-157.6 3948.29,-157.6 3948.29,-163.6 3942.29,-169.6 3936.29,-169.6"/>
<text text-anchor="middle" x="3839.68" y="-153" font-family="Helvetica,sans-Serif" font-size="14.00">mileage &lt;= 1.5</text>
<text text-anchor="middle" x="3839.68" y="-136.2" font-family="Helvetica,sans-Serif" font-size="14.00">squared_error = 398333946.413</text>
<text text-anchor="middle" x="3839.68" y="-119.4" font-family="Helvetica,sans-Serif" font-size="14.00">samples = 312</text>
<text text-anchor="middle" x="3839.68" y="-102.6" font-family="Helvetica,sans-Serif" font-size="14.00">value = 63394.022</text>
</g>
<!-- 42&#45;&gt;43 -->
<g id="edge43" class="edge">
<title>42-&gt;43</title>
<path fill="none" stroke="black" d="M3839.68,-205.23C3839.68,-197.58 3839.68,-189.41 3839.68,-181.43"/>
<polygon fill="black" stroke="black" points="3843.18,-181.45 3839.68,-171.45 3836.18,-181.45 3843.18,-181.45"/>
</g>
<!-- 46 -->
<g id="node47" class="node">
<title>46</title>
<path fill="#efaf82" stroke="black" d="M4269.29,-169.6C4269.29,-169.6 4076.07,-169.6 4076.07,-169.6 4070.07,-169.6 4064.07,-163.6 4064.07,-157.6 4064.07,-157.6 4064.07,-106.4 4064.07,-106.4 4064.07,-100.4 4070.07,-94.4 4076.07,-94.4 4076.07,-94.4 4269.29,-94.4 4269.29,-94.4 4275.29,-94.4 4281.29,-100.4 4281.29,-106.4 4281.29,-106.4 4281.29,-157.6 4281.29,-157.6 4281.29,-163.6 4275.29,-169.6 4269.29,-169.6"/>
<text text-anchor="middle" x="4172.68" y="-153" font-family="Helvetica,sans-Serif" font-size="14.00">mileage &lt;= 489.5</text>
<text text-anchor="middle" x="4172.68" y="-136.2" font-family="Helvetica,sans-Serif" font-size="14.00">squared_error = 613691284.556</text>
<text text-anchor="middle" x="4172.68" y="-119.4" font-family="Helvetica,sans-Serif" font-size="14.00">samples = 6</text>
<text text-anchor="middle" x="4172.68" y="-102.6" font-family="Helvetica,sans-Serif" font-size="14.00">value = 84907.667</text>
</g>
<!-- 42&#45;&gt;46 -->
<g id="edge46" class="edge">
<title>42-&gt;46</title>
<path fill="none" stroke="black" d="M3948.71,-206.44C3982,-195.53 4018.79,-183.46 4052.76,-172.32"/>
<polygon fill="black" stroke="black" points="4053.83,-175.66 4062.24,-169.21 4051.65,-169.01 4053.83,-175.66"/>
</g>
<!-- 44 -->
<g id="node45" class="node">
<title>44</title>
<path fill="#f4c8a9" stroke="black" d="M3838.29,-58.4C3838.29,-58.4 3645.07,-58.4 3645.07,-58.4 3639.07,-58.4 3633.07,-52.4 3633.07,-46.4 3633.07,-46.4 3633.07,-12 3633.07,-12 3633.07,-6 3639.07,0 3645.07,0 3645.07,0 3838.29,0 3838.29,0 3844.29,0 3850.29,-6 3850.29,-12 3850.29,-12 3850.29,-46.4 3850.29,-46.4 3850.29,-52.4 3844.29,-58.4 3838.29,-58.4"/>
<text text-anchor="middle" x="3741.68" y="-41.8" font-family="Helvetica,sans-Serif" font-size="14.00">squared_error = 833738751.894</text>
<text text-anchor="middle" x="3741.68" y="-25" font-family="Helvetica,sans-Serif" font-size="14.00">samples = 40</text>
<text text-anchor="middle" x="3741.68" y="-8.2" font-family="Helvetica,sans-Serif" font-size="14.00">value = 68389.575</text>
</g>
<!-- 43&#45;&gt;44 -->
<g id="edge44" class="edge">
<title>43-&gt;44</title>
<path fill="none" stroke="black" d="M3803.74,-94.04C3795.13,-85.18 3785.94,-75.73 3777.34,-66.88"/>
<polygon fill="black" stroke="black" points="3779.85,-64.45 3770.37,-59.72 3774.83,-69.33 3779.85,-64.45"/>
</g>
<!-- 45 -->
<g id="node46" class="node">
<title>45</title>
<path fill="#f5d1b7" stroke="black" d="M4073.29,-58.4C4073.29,-58.4 3880.07,-58.4 3880.07,-58.4 3874.07,-58.4 3868.07,-52.4 3868.07,-46.4 3868.07,-46.4 3868.07,-12 3868.07,-12 3868.07,-6 3874.07,0 3880.07,0 3880.07,0 4073.29,0 4073.29,0 4079.29,0 4085.29,-6 4085.29,-12 4085.29,-12 4085.29,-46.4 4085.29,-46.4 4085.29,-52.4 4079.29,-58.4 4073.29,-58.4"/>
<text text-anchor="middle" x="3976.68" y="-41.8" font-family="Helvetica,sans-Serif" font-size="14.00">squared_error = 330094198.758</text>
<text text-anchor="middle" x="3976.68" y="-25" font-family="Helvetica,sans-Serif" font-size="14.00">samples = 272</text>
<text text-anchor="middle" x="3976.68" y="-8.2" font-family="Helvetica,sans-Serif" font-size="14.00">value = 62659.382</text>
</g>
<!-- 43&#45;&gt;45 -->
<g id="edge45" class="edge">
<title>43-&gt;45</title>
<path fill="none" stroke="black" d="M3889.91,-94.04C3902.69,-84.63 3916.39,-74.56 3929.04,-65.25"/>
<polygon fill="black" stroke="black" points="3930.84,-68.27 3936.82,-59.53 3926.69,-62.63 3930.84,-68.27"/>
</g>
<!-- 47 -->
<g id="node48" class="node">
<title>47</title>
<path fill="#e58139" stroke="black" d="M4230.35,-58.4C4230.35,-58.4 4115,-58.4 4115,-58.4 4109,-58.4 4103,-52.4 4103,-46.4 4103,-46.4 4103,-12 4103,-12 4103,-6 4109,0 4115,0 4115,0 4230.35,0 4230.35,0 4236.35,0 4242.35,-6 4242.35,-12 4242.35,-12 4242.35,-46.4 4242.35,-46.4 4242.35,-52.4 4236.35,-58.4 4230.35,-58.4"/>
<text text-anchor="middle" x="4172.68" y="-41.8" font-family="Helvetica,sans-Serif" font-size="14.00">squared_error = 0.0</text>
<text text-anchor="middle" x="4172.68" y="-25" font-family="Helvetica,sans-Serif" font-size="14.00">samples = 1</text>
<text text-anchor="middle" x="4172.68" y="-8.2" font-family="Helvetica,sans-Serif" font-size="14.00">value = 115445.0</text>
</g>
<!-- 46&#45;&gt;47 -->
<g id="edge47" class="edge">
<title>46-&gt;47</title>
<path fill="none" stroke="black" d="M4172.68,-94.04C4172.68,-86.19 4172.68,-77.86 4172.68,-69.91"/>
<polygon fill="black" stroke="black" points="4176.18,-70.14 4172.68,-60.14 4169.18,-70.14 4176.18,-70.14"/>
</g>
<!-- 48 -->
<g id="node49" class="node">
<title>48</title>
<path fill="#f0b890" stroke="black" d="M4457.39,-58.4C4457.39,-58.4 4271.96,-58.4 4271.96,-58.4 4265.96,-58.4 4259.96,-52.4 4259.96,-46.4 4259.96,-46.4 4259.96,-12 4259.96,-12 4259.96,-6 4265.96,0 4271.96,0 4271.96,0 4457.39,0 4457.39,0 4463.39,0 4469.39,-6 4469.39,-12 4469.39,-12 4469.39,-46.4 4469.39,-46.4 4469.39,-52.4 4463.39,-58.4 4457.39,-58.4"/>
<text text-anchor="middle" x="4364.68" y="-41.8" font-family="Helvetica,sans-Serif" font-size="14.00">squared_error = 512622646.96</text>
<text text-anchor="middle" x="4364.68" y="-25" font-family="Helvetica,sans-Serif" font-size="14.00">samples = 5</text>
<text text-anchor="middle" x="4364.68" y="-8.2" font-family="Helvetica,sans-Serif" font-size="14.00">value = 78800.2</text>
</g>
<!-- 46&#45;&gt;48 -->
<g id="edge48" class="edge">
<title>46-&gt;48</title>
<path fill="none" stroke="black" d="M4243.08,-94.04C4261.77,-84.22 4281.86,-73.68 4300.22,-64.04"/>
<polygon fill="black" stroke="black" points="4301.65,-67.24 4308.88,-59.49 4298.4,-61.04 4301.65,-67.24"/>
</g>
</g>
</svg>